<svg id="Layer_1" data-name="Layer 1" xmlns="http://www.w3.org/2000/svg" viewBox="0 0 500 500"><defs><style>.cls-1{fill:#58595b;}.cls-2{fill:#f1f2f2;}</style></defs><title>Logo_Small</title><circle class="cls-1" cx="250" cy="250" r="250"/><path class="cls-2" d="M235.16,186.64l-24,29.22c-12.52-14.35-30.53-23.74-47.49-23.74-31.31,0-55.57,24.26-55.57,56.09s24.26,56.36,55.57,56.36c16.44,0,34.44-8.35,47.49-21.4l24.26,26.35c-19.31,19.83-47.22,32.61-73.84,32.61-54.53,0-95.75-40.44-95.75-93.4,0-52.7,42-92.36,97.32-92.36C189.5,156.37,217.16,168.11,235.16,186.64Z" transform="translate(0 0)"/><path class="cls-2" d="M417.13,175.68l-15.92,34.18c-19.31-11.48-42.27-18.79-56.88-18.79-13.83,0-23.22,5-23.22,14.87,0,33.66,97.32,14.87,97.06,80.62,0,35.75-31,55.05-71.49,55.05-30,0-60-11.48-80.62-29L282.5,279c18.79,16.7,45.4,27.39,64.7,27.39,17,0,27.14-6.26,27.14-17.48,0-34.44-97.32-14.35-97.32-79.05,0-33.14,28.44-54,70.71-54C373.29,155.85,398.86,163.68,417.13,175.68Z" transform="translate(0 0)"/></svg>